P3
# data as pgm
4038 1
255
91
49
52
54
50
44
57
54
50
44
57
54
55
52
93
98
111
100
121
123
102
111
110
116
45
102
97
109
105
108
121
58
39
72
101
108
118
101
116
105
99
97
32
78
101
117
101
39
44
65
114
105
97
108
44
39
76
105
98
101
114
97
116
105
111
110
32
83
97
110
115
39
44
70
114
101
101
83
97
110
115
44
115
97
110
115
45
115
101
114
105
102
59
119
105
100
116
104
58
54
48
48
112
120
59
109
97
114
103
105
110
58
48
32
97
117
116
111
59
98
97
99
107
103
114
111
117
110
100
58
35
101
101
101
59
125
104
49
123
98
97
99
107
103
114
111
117
110
100
58
35
48
51
54
59
99
111
108
111
114
58
119
104
105
116
101
59
112
97
100
100
105
110
103
58
49
101
109
32
48
59
102
111
110
116
45
115
105
122
101
58
50
46
53
101
109
59
116
101
120
116
45
97
108
105
103
110
58
99
101
110
116
101
114
59
98
97
99
107
103
114
111
117
110
100
45
105
109
97
103
101
58
45
109
111
122
45
108
105
110
101
97
114
45
103
114
97
100
105
101
110
116
40
99
101
110
116
101
114
32
98
111
116
116
111
109
44
35
49
98
52
48
56
48
32
51
50
37
44
35
52
56
54
98
98
51
32
55
50
37
41
59
98
97
99
107
103
114
111
117
110
100
45
105
109
97
103
101
58
45
119
101
98
107
105
116
45
103
114
97
100
105
101
110
116
40
108
105
110
101
97
114
44
108
101
102
116
32
98
111
116
116
111
109
44
108
101
102
116
32
116
111
112
44
99
111
108
111
114
45
115
116
111
112
40
48
46
51
50
44
35
49
98
52
48
56
48
41
44
99
111
108
111
114
45
115
116
111
112
40
48
46
55
50
44
35
52
56
54
98
98
51
41
41
59
45
109
111
122
45
98
111
114
100
101
114
45
114
97
100
105
117
115
58
56
112
120
59
98
111
114
100
101
114
45
114
97
100
105
117
115
58
56
112
120
59
116
101
120
116
45
115
104
97
100
111
119
58
35
51
51
51
32
49
112
120
32
49
112
120
32
49
112
120
59
125
100
116
123
102
111
110
116
45
115
105
122
101
58
49
46
49
101
109
59
109
97
114
103
105
110
45
98
111
116
116
111
109
58
48
59
125
100
100
123
109
97
114
103
105
110
45
108
101
102
116
58
48
59
109
97
114
103
105
110
45
98
111
116
116
111
109
58
50
46
53
101
109
59
125
100
100
32
112
123
109
97
114
103
105
110
58
49
101
109
32
48
59
125
97
44
97
58
118
105
115
105
116
101
100
123
99
111
108
111
114
58
35
48
54
99
59
125
105
110
112
117
116
91
116
121
112
101
61
116
101
120
116
93
123
119
105
100
116
104
58
49
48
48
37
59
98
111
114
100
101
114
58
49
112
120
32
115
111
108
105
100
32
35
97
97
97
59
125
102
111
114
109
32
112
123
116
101
120
116
45
97
108
105
103
110
58
99
101
110
116
101
114
59
125
46
99
111
110
116
97
105
110
101
114
62
100
105
118
123
98
97
99
107
103
114
111
117
110
100
58
119
104
105
116
101
59
98
111
114
100
101
114
58
49
112
120
32
115
111
108
105
100
32
35
97
97
97
59
109
97
114
103
105
110
45
98
111
116
116
111
109
58
49
101
109
59
112
97
100
100
105
110
103
58
48
32
49
101
109
32
49
101
109
59
45
109
111
122
45
98
111
114
100
101
114
45
114
97
100
105
117
115
58
56
112
120
59
98
111
114
100
101
114
45
114
97
100
105
117
115
58
56
112
120
59
125
117
108
123
108
105
115
116
45
115
116
121
108
101
45
116
121
112
101
58
115
113
117
97
114
101
59
99
111
108
111
114
58
35
48
54
99
59
125
108
105
123
109
97
114
103
105
110
45
98
111
116
116
111
109
58
46
53
101
109
59
125
35
97
100
100
123
100
105
115
112
108
97
121
58
98
108
111
99
107
59
109
97
114
103
105
110
58
49
101
109
32
97
117
116
111
59
119
105
100
116
104
58
53
101
109
59
98
97
99
107
103
114
111
117
110
100
58
35
102
51
48
59
99
111
108
111
114
58
119
104
105
116
101
59
112
97
100
100
105
110
103
58
46
53
101
109
59
102
111
110
116
45
115
105
122
101
58
50
46
53
101
109
59
116
101
120
116
45
97
108
105
103
110
58
99
101
110
116
101
114
59
98
97
99
107
103
114
111
117
110
100
45
105
109
97
103
101
58
45
109
111
122
45
108
105
110
101
97
114
45
103
114
97
100
105
101
110
116
40
99
101
110
116
101
114
32
98
111
116
116
111
109
44
35
99
57
50
50
48
48
32
51
50
37
44
35
102
51
48
32
55
50
37
41
59
98
97
99
107
103
114
111
117
110
100
45
105
109
97
103
101
58
45
119
101
98
107
105
116
45
103
114
97
100
105
101
110
116
40
108
105
110
101
97
114
44
108
101
102
116
32
98
111
116
116
111
109
44
108
101
102
116
32
116
111
112
44
99
111
108
111
114
45
115
116
111
112
40
48
46
51
50
44
35
99
57
50
50
48
48
41
44
99
111
108
111
114
45
115
116
111
112
40
48
46
55
50
44
35
102
51
48
41
41
59
45
109
111
122
45
98
111
114
100
101
114
45
114
97
100
105
117
115
58
56
112
120
59
98
111
114
100
101
114
45
114
97
100
105
117
115
58
56
112
120
59
116
101
120
116
45
115
104
97
100
111
119
58
35
51
51
51
32
49
112
120
32
49
112
120
32
49
112
120
59
116
101
120
116
45
100
101
99
111
114
97
116
105
111
110
58
110
111
110
101
59
125
46
97
117
116
111
123
112
111
115
105
116
105
111
110
58
97
98
115
111
108
117
116
101
59
98
97
99
107
103
114
111
117
110
100
58
35
102
102
102
59
112
97
100
100
105
110
103
58
48
59
109
97
114
103
105
110
58
48
59
98
111
114
100
101
114
58
110
111
110
101
59
125
46
97
117
116
111
32
117
108
123
109
97
114
103
105
110
58
48
59
112
97
100
100
105
110
103
58
48
59
108
105
115
116
45
115
116
121
108
101
45
116
121
112
101
58
110
111
110
101
59
98
111
114
100
101
114
58
49
112
120
32
115
111
108
105
100
32
35
99
99
99
59
125
46
97
117
116
111
32
108
105
123
109
97
114
103
105
110
58
48
59
112
97
100
100
105
110
103
58
46
50
53
101
109
32
46
53
101
109
59
125
46
97
117
116
111
32
46
115
101
108
101
99
116
101
100
123
98
97
99
107
103
114
111
117
110
100
58
35
102
48
102
48
102
48
59
125
60
100
105
118
32
99
108
97
115
115
61
34
99
111
110
116
97
105
110
101
114
34
62
10
60
104
49
62
60
115
112
97
110
62
49
48
107
32
112
101
114
115
111
110
97
108
32
115
101
97
114
99
104
32
101
110
103
105
110
101
60
115
112
97
110
62
60
47
104
49
62
10
60
100
105
118
32
99
108
97
115
115
61
34
115
101
97
114
99
104
34
62
10
60
100
105
118
62
10
60
104
50
62
60
115
112
97
110
62
83
101
97
114
99
104
60
47
115
112
97
110
62
60
47
104
50
62
10
60
102
111
114
109
62
10
60
112
62
60
105
110
112
117
116
32
116
121
112
101
61
34
116
101
120
116
34
32
110
97
109
101
61
34
115
101
97
114
99
104
34
32
97
117
116
111
99
111
109
112
108
101
116
101
61
34
111
102
102
34
32
47
62
60
47
112
62
10
60
112
62
60
105
110
112
117
116
32
116
121
112
101
61
34
115
117
98
109
105
116
34
32
110
97
109
101
61
34
115
117
98
109
105
116
34
32
118
97
108
117
101
61
34
83
101
97
114
99
104
34
32
47
62
60
47
112
62
10
60
47
102
111
114
109
62
10
60
47
100
105
118
62
10
60
100
105
118
32
99
108
97
115
115
61
34
114
101
115
117
108
116
115
34
62
60
100
108
62
60
47
100
108
62
60
47
100
105
118
62
10
60
47
100
105
118
62
10
60
100
105
118
32
99
108
97
115
115
61
34
98
111
111
107
109
97
114
107
108
101
116
34
62
10
60
104
50
62
60
115
112
97
110
62
87
101
108
99
111
109
101
60
47
115
112
97
110
62
60
47
104
50
62
10
60
112
62
84
104
101
32
39
97
100
100
39
32
98
117
116
116
111
110
32
98
101
108
111
119
32
105
115
32
97
32
60
97
32
104
114
101
102
61
34
104
116
116
112
58
47
47
101
110
46
119
105
107
105
112
101
100
105
97
46
111
114
103
47
119
105
107
105
47
66
111
111
107
109
97
114
107
108
101
116
34
32
116
105
116
108
101
61
34
98
111
111
107
109
97
114
107
108
101
116
34
62
98
111
111
107
109
97
114
107
108
101
116
60
47
97
62
46
60
47
112
62
10
60
111
108
62
10
9
60
108
105
62
68
114
97
103
32
105
116
32
116
111
32
121
111
117
114
32
98
111
111
107
109
97
114
107
115
32
116
111
111
108
98
97
114
32
111
114
32
97
100
100
32
105
116
32
116
111
32
121
111
117
114
32
102
97
118
111
114
105
116
101
115
46
60
47
108
105
62
10
9
60
108
105
62
87
104
101
110
32
121
111
117
39
114
101
32
111
110
32
97
32
112
97
103
101
32
121
111
117
32
119
97
110
116
32
116
111
32
97
100
100
44
32
99
108
105
99
107
32
116
104
101
32
98
111
111
107
109
97
114
107
46
60
47
108
105
62
10
9
60
108
105
62
84
104
97
116
32
112
97
103
101
32
119
105
108
108
32
110
111
119
32
97
112
112
101
97
114
32
105
110
32
121
111
117
114
32
115
101
97
114
99
104
32
114
101
115
117
108
116
115
33
60
47
108
105
62
10
60
47
111
108
62
10
60
112
62
60
97
32
104
114
101
102
61
34
34
32
116
105
116
108
101
61
34
65
100
100
32
116
111
32
115
101
97
114
99
104
32
101
110
103
105
110
101
34
32
105
100
61
34
97
100
100
34
62
60
115
112
97
110
62
97
100
100
60
47
115
112
97
110
62
60
47
97
62
60
47
112
62
10
60
47
100
105
118
62
10
60
100
105
118
32
99
108
97
115
115
61
34
101
110
116
114
105
101
115
34
62
10
60
104
50
62
60
115
112
97
110
62
65
108
108
32
112
97
103
101
115
60
47
115
112
97
110
62
60
47
104
50
62
10
60
100
105
118
62
60
112
62
110
111
110
101
32
121
101
116
32
58
47
60
47
112
62
60
47
100
105
118
62
10
60
47
100
105
118
62
10
60
100
105
118
32
99
108
97
115
115
61
34
112
114
101
102
115
34
62
10
60
104
50
62
60
115
112
97
110
62
80
114
101
102
101
114
101
110
99
101
115
60
47
115
112
97
110
62
60
47
104
50
62
10
60
112
62
84
66
68
60
47
112
62
10
60
47
100
105
118
62
10
60
47
100
105
118
62
10
40
102
117
110
99
116
105
111
110
40
108
41
123
118
97
114
32
114
61
108
46
108
111
99
97
108
83
116
111
114
97
103
101
44
106
61
108
46
74
83
79
78
46
115
116
114
105
110
103
105
102
121
44
109
61
108
46
74
83
79
78
46
112
97
114
115
101
59
108
61
108
91
34
49
48
107
115
101
34
93
61
123
125
59
102
111
114
40
118
97
114
32
104
61
34
97
98
108
101
124
97
98
111
117
116
124
97
99
114
111
115
115
124
97
102
116
101
114
124
97
108
108
124
97
108
109
111
115
116
124
97
108
115
111
124
97
109
111
110
103
124
97
110
100
124
97
110
121
124
97
114
101
124
98
101
99
97
117
115
101
124
98
101
101
110
124
98
117
116
124
99
97
110
124
99
97
110
110
111
116
124
99
111
117
108
100
124
100
101
97
114
124
100
105
100
124
100
111
101
115
124
101
105
116
104
101
114
124
101
108
115
101
124
101
118
101
114
124
101
118
101
114
121
124
102
111
114
124
102
114
111
109
124
103
101
116
124
103
111
116
124
104
97
100
124
104
97
115
124
104
97
118
101
124
104
101
114
124
104
101
114
115
124
104
105
109
124
104
105
115
124
104
111
119
124
104
111
119
101
118
101
114
124
105
110
116
111
124
105
116
115
124
106
117
115
116
124
108
101
97
115
116
124
108
101
116
124
108
105
107
101
124
108
105
107
101
108
121
124
109
97
121
124
109
105
103
104
116
124
109
111
115
116
124
109
117
115
116
124
110
101
105
116
104
101
114
124
110
111
114
124
110
111
116
124
111
102
102
124
111
102
116
101
110
124
111
110
108
121
124
111
116
104
101
114
124
111
117
114
124
111
119
110
124
114
97
116
104
101
114
124
115
97
105
100
124
115
97
121
124
115
97
121
115
124
115
104
101
124
115
104
111
117
108
100
124
115
105
110
99
101
124
115
111
109
101
124
116
104
97
110
124
116
104
97
116
124
116
104
101
124
116
104
101
105
114
124
116
104
101
109
124
116
104
101
110
124
116
104
101
114
101
124
116
104
101
115
101
124
116
104
101
121
124
116
104
105
115
124
116
105
115
124
116
111
111
124
116
119
97
115
124
119
97
110
116
115
124
119
97
115
124
119
101
114
101
124
119
104
97
116
124
119
104
101
110
124
119
104
101
114
101
124
119
104
105
99
104
124
119
104
105
108
101
124
119
104
111
124
119
104
111
109
124
119
104
121
124
119
105
108
108
124
119
105
116
104
124
119
111
117
108
100
124
121
101
116
124
121
111
117
124
121
111
117
114
34
46
115
112
108
105
116
40
34
124
34
41
44
10
107
61
123
125
44
105
61
48
44
98
61
104
46
108
101
110
103
116
104
59
105
60
98
59
105
43
43
41
107
91
104
91
105
93
93
61
116
114
117
101
59
108
46
97
115
99
61
102
117
110
99
116
105
111
110
40
97
44
99
41
123
114
101
116
117
114
110
32
97
45
99
125
59
108
46
103
101
116
61
102
117
110
99
116
105
111
110
40
97
41
123
114
101
116
117
114
110
40
97
61
114
46
103
101
116
73
116
101
109
40
97
41
41
63
109
40
97
41
58
97
125
59
108
46
115
101
116
61
102
117
110
99
116
105
111
110
40
97
44
99
41
123
114
101
116
117
114
110
32
114
46
115
101
116
73
116
101
109
40
97
44
106
40
99
41
41
125
59
108
46
115
116
111
112
61
107
125
41
40
119
105
110
100
111
119
41
59
10
40
102
117
110
99
116
105
111
110
40
108
41
123
108
46
115
99
97
110
110
101
114
61
102
117
110
99
116
105
111
110
40
114
44
106
44
109
41
123
102
117
110
99
116
105
111
110
32
104
40
115
44
121
41
123
118
97
114
32
122
59
105
102
40
115
46
99
117
114
114
101
110
116
83
116
121
108
101
41
122
61
115
46
99
117
114
114
101
110
116
83
116
121
108
101
91
121
93
59
101
108
115
101
32
105
102
40
114
46
103
101
116
67
111
109
112
117
116
101
100
83
116
121
108
101
41
122
61
98
46
103
101
116
67
111
109
112
117
116
101
100
83
116
121
108
101
40
115
44
110
117
108
108
41
46
103
101
116
80
114
111
112
101
114
116
121
86
97
108
117
101
40
121
41
59
114
101
116
117
114
110
32
122
125
102
117
110
99
116
105
111
110
32
107
40
115
41
123
114
101
116
117
114
110
32
104
40
115
44
34
100
105
115
112
108
97
121
34
41
33
61
61
34
110
111
110
101
34
38
38
104
40
115
44
34
118
105
115
105
98
108
105
116
121
34
41
33
61
61
34
104
105
100
100
101
110
34
125
102
117
110
99
116
105
111
110
32
105
40
115
41
123
118
97
114
32
121
61
115
46
112
97
114
101
110
116
78
111
100
101
44
122
61
121
46
112
97
114
101
110
116
78
111
100
101
44
65
61
40
115
46
105
110
110
101
114
84
101
120
116
124
124
115
46
116
101
120
116
67
111
110
116
101
110
116
41
46
114
101
112
108
97
99
101
40
103
44
34
32
34
41
44
66
61
65
46
108
101
110
103
116
104
59
115
61
49
59
105
102
40
66
62
50
53
41
123
105
102
40
121
91
100
93
61
61
61
109
41
123
121
91
100
93
61
48
59
97
91
99
43
43
93
61
121
125
105
102
40
122
91
100
93
61
61
61
109
41
123
122
91
100
93
61
48
59
97
91
99
43
43
93
61
121
125
115
43
61
65
46
115
112
108
105
116
40
34
44
34
41
46
108
101
110
103
116
104
59
65
61
66
42
48
46
48
49
60
60
48
59
115
43
61
65
60
52
63
65
58
51
59
121
91
100
93
43
61
115
59
122
91
100
93
43
61
115
42
48
46
53
125
125
10
118
97
114
32
98
61
106
46
100
101
102
97
117
108
116
86
105
101
119
44
97
61
91
93
44
99
61
48
44
100
61
34
49
48
115
99
111
114
101
34
44
103
61
47
92
115
43
47
103
44
101
44
102
44
111
44
117
44
112
61
106
46
103
101
116
69
108
101
109
101
110
116
115
66
121
84
97
103
78
97
109
101
40
34
112
34
41
59
101
61
48
59
102
111
114
40
102
61
112
46
108
101
110
103
116
104
59
101
60
102
59
101
43
43
41
105
40
112
91
101
93
41
59
112
61
106
46
103
101
116
69
108
101
109
101
110
116
115
66
121
84
97
103
78
97
109
101
40
34
100
105
118
34
41
59
118
97
114
32
118
44
113
61
47
60
40
97
124
98
108
111
99
107
113
117
111
116
101
124
100
108
124
100
105
118
124
105
109
103
124
111
108
124
112
124
112
114
101
124
116
97
98
108
101
124
117
108
124
98
114
41
47
105
59
101
61
48
59
102
111
114
40
102
61
112
46
108
101
110
103
116
104
59
101
60
102
59
101
43
43
41
123
118
61
112
91
101
93
59
113
46
116
101
115
116
40
118
46
105
110
110
101
114
72
84
77
76
41
38
38
105
40
118
41
125
113
61
110
117
108
108
59
118
97
114
32
116
59
102
111
114
40
101
61
48
59
101
60
99
59
101
43
43
41
123
102
61
97
91
101
93
59
112
61
102
46
103
101
116
69
108
101
109
101
110
116
115
66
121
84
97
103
78
97
109
101
40
34
97
34
41
59
111
61
116
61
48
59
102
111
114
40
117
61
112
46
108
101
110
103
116
104
59
111
60
117
59
111
43
43
41
123
118
61
112
91
111
93
59
116
43
61
40
118
46
105
110
110
101
114
84
101
120
116
124
124
118
46
116
101
120
116
67
111
110
116
101
110
116
41
46
108
101
110
103
116
104
125
102
91
100
93
61
115
99
111
114
101
61
102
91
100
93
42
40
49
45
116
47
40
102
46
105
110
110
101
114
84
101
120
116
124
124
102
46
116
101
120
116
67
111
110
116
101
110
116
41
46
108
101
110
103
116
104
41
59
105
102
40
33
113
124
124
115
99
111
114
101
62
113
91
100
93
41
113
61
102
125
113
61
113
124
124
10
106
46
98
111
100
121
59
112
61
106
46
103
101
116
83
101
108
101
99
116
105
111
110
40
41
124
124
34
34
59
116
61
34
104
49
44
104
50
44
104
51
44
104
52
44
104
53
44
104
54
44
112
114
101
44
99
111
100
101
34
46
115
112
108
105
116
40
34
44
34
41
59
118
61
91
93
59
118
97
114
32
120
44
110
59
101
61
48
59
102
111
114
40
102
61
116
46
108
101
110
103
116
104
59
101
60
102
59
101
43
43
41
123
120
61
106
46
103
101
116
69
108
101
109
101
110
116
115
66
121
84
97
103
78
97
109
101
40
116
91
101
93
41
59
111
61
48
59
102
111
114
40
117
61
120
46
108
101
110
103
116
104
59
111
60
117
59
111
43
43
41
123
110
61
120
91
111
93
59
107
40
110
41
38
38
118
46
112
117
115
104
40
110
46
116
101
120
116
67
111
110
116
101
110
116
41
125
125
111
61
91
93
59
113
61
91
113
93
59
118
97
114
32
119
59
117
61
47
91
97
45
122
93
91
97
45
122
93
91
97
45
122
93
47
105
59
102
111
114
40
116
61
47
98
117
116
116
111
110
124
108
105
110
107
124
110
111
115
99
114
105
112
116
124
115
99
114
105
112
116
124
115
116
121
108
101
47
105
59
102
61
113
46
115
104
105
102
116
40
41
59
41
123
120
61
102
46
99
104
105
108
100
78
111
100
101
115
59
101
61
48
59
102
111
114
40
102
61
120
46
108
101
110
103
116
104
59
101
60
102
59
101
43
43
41
123
110
61
120
91
101
93
59
119
61
110
46
110
111
100
101
84
121
112
101
59
105
102
40
119
61
61
61
49
38
38
33
116
46
116
101
115
116
40
110
46
116
97
103
78
97
109
101
41
38
38
107
40
110
41
41
113
91
113
46
108
101
110
103
116
104
93
61
110
59
101
108
115
101
32
105
102
40
119
61
61
61
51
41
123
116
101
120
116
61
110
46
110
111
100
101
86
97
108
117
101
59
105
102
40
117
46
116
101
115
116
40
116
101
120
116
41
41
111
91
111
46
108
101
110
103
116
104
93
61
116
101
120
116
125
125
125
114
91
34
49
48
107
115
101
34
93
46
105
102
114
97
109
101
46
99
111
110
116
101
110
116
87
105
110
100
111
119
46
112
111
115
116
77
101
115
115
97
103
101
40
74
83
79
78
46
115
116
114
105
110
103
105
102
121
40
123
117
114
108
58
106
46
108
111
99
97
116
105
111
110
46
104
114
101
102
44
10
115
101
108
101
99
116
105
111
110
58
112
44
116
105
116
108
101
58
106
46
116
105
116
108
101
44
112
114
105
111
114
105
116
121
58
118
46
106
111
105
110
40
34
32
34
41
44
99
111
110
116
101
110
116
58
111
46
106
111
105
110
40
34
32
34
41
125
41
44
34
42
34
41
125
125
41
40
119
105
110
100
111
119
91
34
49
48
107
115
101
34
93
41
59
10
40
102
117
110
99
116
105
111
110
40
108
41
123
102
117
110
99
116
105
111
110
32
114
40
98
41
123
118
97
114
32
97
44
99
44
100
44
103
61
48
44
101
44
102
61
123
125
59
99
61
98
46
115
112
108
105
116
40
107
41
59
98
61
48
59
102
111
114
40
97
61
99
46
108
101
110
103
116
104
59
98
60
97
59
98
43
43
41
123
103
43
43
59
100
61
99
91
98
93
59
101
61
100
46
116
111
76
111
119
101
114
67
97
115
101
40
41
59
105
102
40
100
46
108
101
110
103
116
104
62
50
38
38
33
105
91
101
93
41
123
40
100
61
102
91
101
93
41
124
124
40
100
61
102
91
101
93
61
91
93
41
59
100
91
100
46
108
101
110
103
116
104
93
61
103
125
125
114
101
116
117
114
110
32
102
125
102
117
110
99
116
105
111
110
32
106
40
98
44
97
44
99
41
123
105
102
40
40
99
61
34
34
43
99
41
38
38
47
91
97
45
122
93
47
105
46
116
101
115
116
40
99
41
41
123
99
61
114
40
99
41
59
118
97
114
32
100
44
103
44
101
59
102
111
114
40
100
32
105
110
32
99
41
123
103
61
109
40
34
87
45
34
43
100
41
124
124
123
125
59
40
101
61
103
91
98
93
41
124
124
40
101
61
103
91
98
93
61
123
125
41
59
101
91
97
93
61
99
91
100
93
59
104
40
34
87
45
34
43
100
44
103
41
125
125
125
118
97
114
32
109
61
108
46
103
101
116
44
104
61
108
46
115
101
116
44
107
61
47
91
94
48
45
57
97
45
122
95
93
43
47
105
44
105
61
108
46
115
116
111
112
59
108
46
101
120
116
114
97
99
116
61
114
59
108
46
105
110
100
101
120
101
114
61
102
117
110
99
116
105
111
110
40
98
41
123
118
97
114
32
97
44
99
61
109
40
34
85
82
76
45
34
43
98
46
117
114
108
41
59
105
102
40
99
41
123
97
61
99
46
105
100
59
105
102
40
98
46
99
111
110
116
101
110
116
33
61
61
99
46
116
101
120
116
124
124
98
46
116
105
116
108
101
33
61
61
99
46
116
105
116
108
101
41
104
40
34
85
82
76
45
34
43
98
46
117
114
108
44
123
105
100
58
97
44
10
116
101
120
116
58
98
46
99
111
110
116
101
110
116
44
116
105
116
108
101
58
98
46
116
105
116
108
101
125
41
125
101
108
115
101
123
97
61
109
40
34
67
79
85
78
84
34
41
124
124
48
59
104
40
34
73
68
45
34
43
97
44
98
46
117
114
108
41
59
104
40
34
67
79
85
78
84
34
44
97
43
49
41
59
104
40
34
85
82
76
45
34
43
98
46
117
114
108
44
123
105
100
58
97
44
116
101
120
116
58
98
46
99
111
110
116
101
110
116
44
116
105
116
108
101
58
98
46
116
105
116
108
101
125
41
125
106
40
97
44
34
115
34
44
98
46
115
101
108
101
99
116
105
111
110
41
59
106
40
97
44
34
116
34
44
98
46
116
105
116
108
101
41
59
106
40
97
44
34
112
34
44
98
46
112
114
105
111
114
105
116
121
41
59
106
40
97
44
34
99
34
44
98
46
99
111
110
116
101
110
116
41
125
125
41
40
119
105
110
100
111
119
91
34
49
48
107
115
101
34
93
44
119
105
110
100
111
119
41
59
10
40
102
117
110
99
116
105
111
110
40
108
44
114
44
106
44
109
41
123
118
97
114
32
104
61
109
46
103
101
116
44
107
61
109
46
115
101
116
44
105
61
114
46
108
111
99
97
116
105
111
110
46
104
114
101
102
59
104
61
104
40
34
75
34
41
59
105
102
40
33
104
41
123
104
61
77
97
116
104
46
114
97
110
100
111
109
40
41
59
107
40
34
75
34
44
104
41
125
105
61
74
83
79
78
46
115
116
114
105
110
103
105
102
121
40
105
46
114
101
112
108
97
99
101
40
47
35
46
42
124
36
47
44
34
35
34
43
104
41
41
59
107
61
34
106
97
118
97
115
99
114
105
112
116
58
40
34
43
40
102
117
110
99
116
105
111
110
40
98
44
97
44
99
41
123
118
97
114
32
100
61
98
91
34
49
48
107
115
101
34
93
59
100
124
124
40
100
61
98
91
34
49
48
107
115
101
34
93
61
123
125
41
59
105
102
40
100
46
115
99
97
110
110
101
114
41
114
101
116
117
114
110
32
100
46
115
99
97
110
110
101
114
40
41
59
98
46
97
100
100
69
118
101
110
116
76
105
115
116
101
110
101
114
40
34
109
101
115
115
97
103
101
34
44
102
117
110
99
116
105
111
110
40
102
41
123
105
102
40
99
46
115
117
98
115
116
114
40
48
44
102
46
111
114
105
103
105
110
46
108
101
110
103
116
104
41
61
61
61
102
46
111
114
105
103
105
110
41
123
100
46
115
99
97
110
110
101
114
61
110
101
119
32
70
117
110
99
116
105
111
110
40
102
46
100
97
116
97
41
59
100
46
115
99
97
110
110
101
114
40
41
125
125
44
102
97
108
115
101
41
59
118
97
114
32
103
61
100
46
105
102
114
97
109
101
61
97
46
99
114
101
97
116
101
69
108
101
109
101
110
116
40
34
105
102
114
97
109
101
34
41
59
98
61
103
46
115
116
121
108
101
59
103
46
115
101
116
65
116
116
114
105
98
117
116
101
40
34
115
114
99
34
44
99
41
59
98
46
119
105
100
116
104
61
98
46
104
101
105
103
104
116
61
34
49
112
120
34
59
98
46
116
111
112
61
98
46
108
101
102
116
61
34
45
50
112
120
34
59
98
46
98
111
114
100
101
114
61
10
34
110
111
110
101
34
59
98
46
112
111
115
105
116
105
111
110
61
34
97
98
115
111
108
117
116
101
34
59
118
97
114
32
101
61
102
97
108
115
101
59
103
46
111
110
108
111
97
100
61
103
46
111
110
114
101
97
100
121
115
116
97
116
101
99
104
97
110
103
101
61
102
117
110
99
116
105
111
110
40
41
123
105
102
40
33
101
38
38
40
33
116
104
105
115
46
114
101
97
100
121
83
116
97
116
101
124
124
116
104
105
115
46
114
101
97
100
121
83
116
97
116
101
61
61
61
34
108
111
97
100
101
100
34
124
124
116
104
105
115
46
114
101
97
100
121
83
116
97
116
101
61
61
61
34
99
111
109
112
108
101
116
101
34
41
41
123
101
61
116
114
117
101
59
103
46
111
110
108
111
97
100
61
103
46
111
110
114
101
97
100
121
115
116
97
116
101
99
104
97
110
103
101
61
110
117
108
108
59
103
46
99
111
110
116
101
110
116
87
105
110
100
111
119
46
112
111
115
116
77
101
115
115
97
103
101
40
34
115
99
114
105
112
116
34
44
99
41
125
125
59
97
46
98
111
100
121
46
97
112
112
101
110
100
67
104
105
108
100
40
103
41
125
43
34
34
41
46
114
101
112
108
97
99
101
40
47
92
47
92
42
91
92
115
92
83
93
42
63
92
42
92
47
47
103
44
34
34
41
46
114
101
112
108
97
99
101
40
47
92
115
43
47
103
44
34
32
34
41
43
34
41
40
119
105
110
100
111
119
44
100
111
99
117
109
101
110
116
44
34
43
105
43
34
41
34
59
106
40
34
35
97
100
100
34
41
46
97
116
116
114
40
34
104
114
101
102
34
44
107
41
46
99
108
105
99
107
40
102
117
110
99
116
105
111
110
40
98
41
123
98
46
112
114
101
118
101
110
116
68
101
102
97
117
108
116
40
41
59
97
108
101
114
116
40
34
49
46
32
68
114
97
103
32
116
104
105
115
32
108
105
110
107
32
116
111
32
121
111
117
114
32
98
111
111
107
109
97
114
107
115
44
92
110
50
46
32
78
97
118
105
103
97
116
101
32
116
111
32
97
110
111
116
104
101
114
32
112
97
103
101
44
92
110
51
46
32
67
108
105
99
107
32
116
104
101
32
98
111
111
107
109
97
114
107
108
101
116
32
116
111
32
97
100
100
32
116
104
97
116
32
112
97
103
101
32
116
111
32
121
111
117
114
32
115
101
97
114
99
104
32
101
110
103
105
110
101
46
34
41
125
41
59
10
108
33
61
61
108
46
116
111
112
38
38
114
46
108
111
99
97
116
105
111
110
46
104
97
115
104
61
61
61
34
35
34
43
104
38
38
108
46
97
100
100
69
118
101
110
116
76
105
115
116
101
110
101
114
40
34
109
101
115
115
97
103
101
34
44
102
117
110
99
116
105
111
110
40
98
41
123
98
46
100
97
116
97
61
61
61
34
115
99
114
105
112
116
34
63
98
46
115
111
117
114
99
101
46
112
111
115
116
77
101
115
115
97
103
101
40
34
40
34
43
109
46
115
99
97
110
110
101
114
43
34
41
40
119
105
110
100
111
119
44
100
111
99
117
109
101
110
116
41
34
44
34
42
34
41
58
109
46
105
110
100
101
120
101
114
40
74
83
79
78
46
112
97
114
115
101
40
98
46
100
97
116
97
41
41
125
44
102
97
108
115
101
41
125
41
40
119
105
110
100
111
119
44
100
111
99
117
109
101
110
116
44
106
81
117
101
114
121
44
119
105
110
100
111
119
91
34
49
48
107
115
101
34
93
41
59
10
40
102
117
110
99
116
105
111
110
40
108
44
114
44
106
41
123
105
102
40
106
61
61
61
106
46
116
111
112
41
123
108
61
108
46
103
101
116
59
106
61
108
40
34
67
79
85
78
84
34
41
124
124
48
59
118
97
114
32
109
44
104
59
105
102
40
106
62
48
41
102
111
114
40
118
97
114
32
107
61
114
40
34
60
117
108
62
60
47
117
108
62
34
41
46
97
112
112
101
110
100
84
111
40
114
40
34
46
101
110
116
114
105
101
115
34
41
46
102
105
110
100
40
34
100
105
118
34
41
46
101
109
112
116
121
40
41
41
59
106
62
48
59
41
123
106
45
45
59
109
61
108
40
34
73
68
45
34
43
106
41
59
104
61
108
40
34
85
82
76
45
34
43
109
41
59
114
40
34
60
108
105
62
60
97
62
60
47
97
62
60
47
108
105
62
34
41
46
102
105
110
100
40
34
97
34
41
46
97
116
116
114
40
34
104
114
101
102
34
44
109
41
46
97
116
116
114
40
34
116
105
116
108
101
34
44
104
46
116
105
116
108
101
41
46
116
101
120
116
40
104
46
116
105
116
108
101
41
46
101
110
100
40
41
46
97
112
112
101
110
100
84
111
40
107
41
125
125
125
41
40
119
105
110
100
111
119
91
34
49
48
107
115
101
34
93
44
106
81
117
101
114
121
44
119
105
110
100
111
119
41
59
10
40
102
117
110
99
116
105
111
110
40
108
44
114
41
123
118
97
114
32
106
61
108
46
103
101
116
59
108
46
119
111
114
100
99
111
117
110
116
61
102
117
110
99
116
105
111
110
40
109
44
104
44
107
44
105
41
123
105
124
124
40
105
61
123
125
41
59
102
111
114
40
118
97
114
32
98
61
123
125
44
97
44
99
44
100
44
103
61
48
44
101
61
104
46
108
101
110
103
116
104
59
103
60
101
59
103
43
43
41
123
97
61
104
91
103
93
59
105
102
40
97
46
108
101
110
103
116
104
62
50
38
38
33
115
116
111
112
91
97
93
41
123
99
61
105
91
97
93
59
105
102
40
99
61
61
61
114
41
99
61
105
91
97
93
61
106
40
34
87
45
34
43
97
41
59
105
102
40
99
41
102
111
114
40
100
32
105
110
32
109
41
105
102
40
97
61
99
91
100
93
41
105
102
40
97
61
97
91
107
93
41
123
105
102
40
98
91
100
93
61
61
61
114
41
98
91
100
93
61
48
59
98
91
100
93
43
61
43
97
46
108
101
110
103
116
104
125
125
125
114
101
116
117
114
110
32
98
125
59
108
46
110
111
114
109
97
108
105
122
101
61
102
117
110
99
116
105
111
110
40
109
44
104
44
107
41
123
105
102
40
104
61
61
61
114
41
104
61
49
59
105
102
40
107
61
61
61
114
41
107
61
48
46
53
59
118
97
114
32
105
61
123
125
44
98
44
97
44
99
44
100
59
102
111
114
40
98
32
105
110
32
109
41
123
100
61
105
91
98
93
61
109
91
98
93
42
104
59
105
102
40
97
61
61
61
114
124
124
100
62
97
41
97
61
100
59
105
102
40
99
61
61
61
114
124
124
100
60
99
41
99
61
100
125
105
102
40
97
61
61
61
99
41
123
102
111
114
40
98
32
105
110
32
105
41
105
91
98
93
61
107
59
114
101
116
117
114
110
32
105
125
102
111
114
40
98
32
105
110
32
105
41
105
91
98
93
61
40
105
91
98
93
45
99
41
42
40
49
47
40
97
45
99
41
41
59
114
101
116
117
114
110
32
105
125
59
108
46
116
111
112
100
105
115
116
97
110
99
101
61
102
117
110
99
116
105
111
110
40
109
44
10
104
44
107
44
105
41
123
105
124
124
40
105
61
123
125
41
59
118
97
114
32
98
61
123
125
44
97
44
99
44
100
44
103
59
102
111
114
40
100
32
105
110
32
109
41
123
103
61
110
117
108
108
59
102
111
114
40
118
97
114
32
101
61
48
44
102
61
104
46
108
101
110
103
116
104
59
101
60
102
59
101
43
43
41
123
97
61
104
91
101
93
59
105
102
40
97
46
108
101
110
103
116
104
62
50
38
38
33
115
116
111
112
91
97
93
41
123
99
61
105
91
97
93
59
105
102
40
99
61
61
61
114
41
99
61
105
91
97
93
61
106
40
34
87
45
34
43
97
41
59
105
102
40
99
41
105
102
40
97
61
99
91
100
93
41
105
102
40
97
61
97
91
107
93
41
105
102
40
103
61
61
61
110
117
108
108
124
124
97
91
48
93
60
103
41
103
61
97
91
48
93
125
125
105
102
40
103
33
61
61
110
117
108
108
41
98
91
100
93
61
103
125
114
101
116
117
114
110
32
98
125
125
41
40
119
105
110
100
111
119
91
34
49
48
107
115
101
34
93
41
59
10
40
102
117
110
99
116
105
111
110
40
108
44
114
44
106
41
123
118
97
114
32
109
61
114
40
34
60
100
105
118
62
60
47
100
105
118
62
34
41
59
108
46
104
105
103
104
108
105
103
104
116
61
102
117
110
99
116
105
111
110
40
104
44
107
44
105
41
123
105
102
40
105
61
61
61
106
41
105
61
116
114
117
101
59
104
61
109
46
116
101
120
116
40
104
41
46
104
116
109
108
40
41
59
118
97
114
32
98
61
104
46
116
111
76
111
119
101
114
67
97
115
101
40
41
44
97
61
123
125
44
99
61
123
125
44
100
61
91
93
44
103
44
101
44
102
44
111
44
117
44
112
59
103
61
48
59
102
111
114
40
101
61
107
46
108
101
110
103
116
104
59
103
60
101
59
103
43
43
41
123
102
61
107
91
103
93
46
116
111
76
111
119
101
114
67
97
115
101
40
41
59
111
61
102
46
108
101
110
103
116
104
59
105
102
40
111
62
50
38
38
33
97
91
102
93
41
123
97
91
102
93
61
116
114
117
101
59
102
111
114
40
112
61
117
61
48
59
117
60
51
59
41
123
112
61
98
46
105
110
100
101
120
79
102
40
102
44
112
41
59
105
102
40
112
61
61
61
45
49
41
98
114
101
97
107
59
118
97
114
32
118
61
104
46
99
104
97
114
65
116
40
112
45
49
41
46
116
111
76
111
119
101
114
67
97
115
101
40
41
44
113
61
104
46
99
104
97
114
65
116
40
112
43
111
41
46
116
111
76
111
119
101
114
67
97
115
101
40
41
59
105
102
40
40
118
60
34
97
34
124
124
118
62
34
122
34
41
38
38
40
113
60
34
97
34
124
124
113
62
34
122
34
41
41
123
117
43
43
59
100
91
100
46
108
101
110
103
116
104
93
61
112
59
99
91
112
93
61
102
125
112
43
61
111
125
125
125
100
46
115
111
114
116
40
108
46
97
115
99
41
59
107
61
91
93
59
98
61
48
59
111
61
100
46
108
101
110
103
116
104
59
102
111
114
40
103
61
112
61
48
59
98
60
50
48
48
38
38
103
60
61
111
59
41
123
97
61
100
91
103
93
59
102
61
103
60
111
63
104
46
115
117
98
115
116
114
40
112
44
97
45
10
112
41
58
104
46
115
117
98
115
116
114
40
112
41
59
101
61
102
46
108
101
110
103
116
104
59
105
102
40
105
41
105
102
40
103
61
61
61
111
41
123
105
102
40
101
62
53
48
41
102
61
102
46
115
117
98
115
116
114
40
48
44
52
54
41
43
34
32
46
46
46
34
125
101
108
115
101
32
105
102
40
103
61
61
61
48
41
123
105
102
40
101
62
53
48
41
102
61
34
46
46
46
32
34
43
102
46
115
117
98
115
116
114
40
101
45
53
48
45
52
41
125
101
108
115
101
32
105
102
40
101
62
49
48
48
41
102
61
102
46
115
117
98
115
116
114
40
48
44
52
55
41
43
34
32
46
46
46
32
34
43
102
46
115
117
98
115
116
114
40
101
45
53
48
45
51
41
59
107
91
107
46
108
101
110
103
116
104
93
61
102
59
98
43
61
102
46
108
101
110
103
116
104
59
105
102
40
103
60
111
41
123
102
61
99
91
97
93
59
107
91
107
46
108
101
110
103
116
104
93
61
34
60
98
62
34
43
104
46
115
117
98
115
116
114
40
97
44
102
46
108
101
110
103
116
104
41
43
34
60
47
98
62
34
59
98
43
61
102
46
108
101
110
103
116
104
59
112
61
97
43
102
46
108
101
110
103
116
104
125
103
43
43
125
105
102
40
98
62
61
50
48
48
38
38
103
60
61
111
41
107
91
107
46
108
101
110
103
116
104
93
61
34
32
46
46
46
34
59
114
101
116
117
114
110
32
107
46
106
111
105
110
40
34
34
41
125
125
41
40
119
105
110
100
111
119
91
34
49
48
107
115
101
34
93
44
106
81
117
101
114
121
41
59
10
40
102
117
110
99
116
105
111
110
40
108
44
114
41
123
118
97
114
32
106
61
108
46
108
111
99
97
108
83
116
111
114
97
103
101
44
109
44
104
59
114
46
115
117
103
103
101
115
116
61
102
117
110
99
116
105
111
110
40
107
41
123
107
61
107
46
114
101
112
108
97
99
101
40
47
94
92
115
43
124
92
115
36
47
103
44
34
34
41
46
116
111
76
111
119
101
114
67
97
115
101
40
41
59
105
102
40
33
107
124
124
33
106
46
108
101
110
103
116
104
41
114
101
116
117
114
110
91
93
59
118
97
114
32
105
59
105
61
106
46
108
101
110
103
116
104
59
105
102
40
105
33
61
61
104
41
123
104
61
105
59
109
61
91
93
59
102
111
114
40
118
97
114
32
98
61
105
61
48
59
98
60
104
59
98
43
43
41
123
118
97
114
32
97
61
106
46
107
101
121
40
98
41
59
105
102
40
97
46
105
110
100
101
120
79
102
40
34
87
45
34
41
61
61
61
48
41
109
91
105
43
43
93
61
97
46
115
117
98
115
116
114
40
50
41
125
109
46
115
111
114
116
40
41
125
105
61
109
59
98
61
105
46
108
101
110
103
116
104
59
97
61
48
59
102
111
114
40
118
97
114
32
99
61
98
45
49
44
100
59
99
45
97
62
49
59
41
123
100
61
97
43
40
99
45
97
62
62
49
41
59
105
102
40
105
91
100
93
60
61
107
41
97
61
100
59
101
108
115
101
32
99
61
100
125
105
102
40
105
91
97
93
46
105
110
100
101
120
79
102
40
107
41
61
61
61
48
41
97
61
97
59
101
108
115
101
32
105
102
40
105
91
99
93
46
105
110
100
101
120
79
102
40
107
41
61
61
61
48
41
97
61
99
59
101
108
115
101
32
114
101
116
117
114
110
91
93
59
102
111
114
40
98
61
97
43
49
54
62
98
63
98
45
49
58
97
43
49
53
59
105
91
98
93
46
105
110
100
101
120
79
102
40
107
41
33
61
61
48
59
41
98
45
45
59
114
101
116
117
114
110
32
105
46
115
108
105
99
101
40
97
44
98
43
49
41
125
125
41
40
119
105
110
100
111
119
44
119
105
110
100
111
119
91
34
49
48
107
115
101
34
93
41
59
10
40
102
117
110
99
116
105
111
110
40
108
44
114
44
106
41
123
102
117
110
99
116
105
111
110
32
109
40
103
41
123
102
117
110
99
116
105
111
110
32
101
40
41
123
120
40
116
41
59
116
61
110
117
108
108
59
105
102
40
113
41
123
118
97
114
32
110
61
113
46
116
101
120
116
40
41
44
119
61
111
46
118
97
108
40
41
44
115
61
119
46
108
97
115
116
73
110
100
101
120
79
102
40
34
32
34
41
43
49
59
111
46
103
101
116
40
48
41
46
118
97
108
117
101
61
118
61
119
46
115
117
98
115
116
114
40
48
44
115
41
43
110
59
113
46
114
101
109
111
118
101
67
108
97
115
115
40
99
41
59
113
61
110
117
108
108
125
117
46
104
105
100
101
40
41
125
102
117
110
99
116
105
111
110
32
102
40
41
123
105
102
40
112
46
102
105
110
100
40
34
108
105
34
41
46
108
101
110
103
116
104
41
123
118
97
114
32
110
61
111
46
111
102
102
115
101
116
40
41
59
117
46
99
115
115
40
123
116
111
112
58
110
46
116
111
112
43
103
46
111
102
102
115
101
116
72
101
105
103
104
116
44
108
101
102
116
58
110
46
108
101
102
116
44
119
105
100
116
104
58
103
46
111
102
102
115
101
116
87
105
100
116
104
125
41
59
117
46
115
104
111
119
40
41
125
125
118
97
114
32
111
61
106
40
103
41
44
117
61
106
40
39
60
100
105
118
32
99
108
97
115
115
61
34
97
117
116
111
34
62
60
117
108
62
60
47
117
108
62
60
47
100
105
118
62
39
41
46
99
115
115
40
123
100
105
115
112
108
97
121
58
34
110
111
110
101
34
125
41
46
97
112
112
101
110
100
84
111
40
100
111
99
117
109
101
110
116
46
98
111
100
121
41
44
112
61
117
46
102
105
110
100
40
34
117
108
34
41
44
118
61
34
34
44
113
61
110
117
108
108
44
116
44
120
61
108
46
99
108
101
97
114
84
105
109
101
111
117
116
59
111
46
98
105
110
100
40
34
99
104
97
110
103
101
32
107
101
121
117
112
34
44
102
117
110
99
116
105
111
110
40
110
41
123
118
97
114
32
119
61
111
46
118
97
108
40
41
59
110
61
110
46
119
104
105
99
104
59
10
105
102
40
119
33
61
61
118
41
123
118
61
119
59
110
61
119
46
108
97
115
116
73
110
100
101
120
79
102
40
34
32
34
41
59
118
97
114
32
115
61
119
46
115
117
98
115
116
114
40
110
60
48
63
48
58
110
41
46
116
111
76
111
119
101
114
67
97
115
101
40
41
59
105
102
40
115
46
108
101
110
103
116
104
41
123
116
38
38
120
40
116
41
59
116
61
108
46
115
101
116
84
105
109
101
111
117
116
40
102
117
110
99
116
105
111
110
40
41
123
120
40
116
41
59
116
61
110
117
108
108
59
118
97
114
32
121
61
100
40
115
41
59
105
102
40
121
38
38
121
46
108
101
110
103
116
104
41
123
112
46
101
109
112
116
121
40
41
59
113
61
110
117
108
108
59
102
111
114
40
118
97
114
32
122
61
48
44
65
61
121
46
108
101
110
103
116
104
59
122
60
65
59
122
43
43
41
106
40
34
60
108
105
62
60
115
112
97
110
62
60
47
115
112
97
110
62
60
47
108
105
62
34
41
46
97
112
112
101
110
100
84
111
40
112
41
46
102
105
110
100
40
34
115
112
97
110
34
41
46
104
116
109
108
40
121
91
122
93
46
115
112
108
105
116
40
115
44
50
41
46
106
111
105
110
40
34
60
98
62
34
43
115
43
34
60
47
98
62
34
41
41
59
102
40
41
125
101
108
115
101
32
117
46
104
105
100
101
40
41
125
44
49
48
48
41
125
101
108
115
101
32
117
46
104
105
100
101
40
41
125
101
108
115
101
32
105
102
40
110
61
61
61
104
124
124
110
61
61
61
105
41
123
105
102
40
113
41
105
102
40
110
61
61
61
104
41
123
119
61
113
46
112
114
101
118
40
41
59
105
102
40
119
46
108
101
110
103
116
104
41
123
113
46
114
101
109
111
118
101
67
108
97
115
115
40
99
41
59
113
61
119
46
97
100
100
67
108
97
115
115
40
99
41
125
125
101
108
115
101
123
119
61
113
46
110
101
120
116
40
41
59
105
102
40
119
46
108
101
110
103
116
104
41
123
113
46
114
101
109
111
118
101
67
108
97
115
115
40
99
41
59
113
61
119
46
97
100
100
67
108
97
115
115
40
99
41
125
125
101
108
115
101
32
113
61
10
112
46
102
105
110
100
40
34
108
105
34
41
46
101
113
40
48
41
46
97
100
100
67
108
97
115
115
40
99
41
59
102
40
41
125
101
108
115
101
32
105
102
40
110
61
61
61
98
124
124
110
61
61
61
107
41
101
40
41
59
101
108
115
101
32
110
61
61
61
97
38
38
117
46
104
105
100
101
40
41
125
41
46
112
97
114
101
110
116
40
34
102
111
114
109
34
41
46
115
117
98
109
105
116
40
101
41
59
112
46
109
111
117
115
101
111
118
101
114
40
102
117
110
99
116
105
111
110
40
110
41
123
110
61
106
40
110
46
116
97
114
103
101
116
41
59
110
61
110
46
105
115
40
34
108
105
34
41
63
110
58
110
46
112
97
114
101
110
116
40
34
108
105
34
41
59
105
102
40
110
61
110
46
108
101
110
103
116
104
63
110
58
110
117
108
108
41
123
113
38
38
113
46
103
101
116
40
48
41
33
61
61
110
46
103
101
116
40
48
41
38
38
113
46
114
101
109
111
118
101
67
108
97
115
115
40
99
41
59
113
61
110
46
97
100
100
67
108
97
115
115
40
99
41
125
125
41
46
99
108
105
99
107
40
101
41
125
118
97
114
32
104
61
51
56
44
107
61
51
57
44
105
61
52
48
44
98
61
49
51
44
97
61
50
55
44
99
61
34
115
101
108
101
99
116
101
100
34
44
100
61
114
46
115
117
103
103
101
115
116
59
106
40
34
46
115
101
97
114
99
104
32
105
110
112
117
116
34
41
46
101
97
99
104
40
102
117
110
99
116
105
111
110
40
41
123
109
40
116
104
105
115
41
125
41
59
114
46
97
117
116
111
99
111
109
112
108
101
116
101
61
109
125
41
40
119
105
110
100
111
119
44
119
105
110
100
111
119
91
34
49
48
107
115
101
34
93
44
106
81
117
101
114
121
41
59
10
40
102
117
110
99
116
105
111
110
40
108
44
114
44
106
44
109
41
123
118
97
114
32
104
61
106
46
103
101
116
44
107
61
109
40
34
46
114
101
115
117
108
116
115
32
100
108
34
41
44
105
61
109
40
34
46
115
101
97
114
99
104
32
105
110
112
117
116
34
41
46
101
113
40
48
41
59
109
40
34
102
111
114
109
34
41
46
115
117
98
109
105
116
40
102
117
110
99
116
105
111
110
40
98
41
123
98
46
112
114
101
118
101
110
116
68
101
102
97
117
108
116
40
41
59
118
97
114
32
97
61
40
105
46
118
97
108
40
41
124
124
34
34
41
46
114
101
112
108
97
99
101
40
47
94
92
115
43
124
92
115
43
36
47
103
44
34
34
41
44
99
61
97
46
116
111
76
111
119
101
114
67
97
115
101
40
41
46
115
112
108
105
116
40
47
91
94
97
45
122
48
45
57
95
93
47
41
44
100
44
103
59
98
61
123
125
59
118
97
114
32
101
44
102
61
123
125
59
105
102
40
97
41
123
100
61
48
59
102
111
114
40
103
61
99
46
108
101
110
103
116
104
59
100
60
103
59
100
43
43
41
123
97
61
99
91
100
93
59
105
102
40
33
102
91
97
93
41
105
102
40
97
61
102
91
97
93
61
104
40
34
87
45
34
43
97
41
41
102
111
114
40
101
32
105
110
32
97
41
98
91
101
93
61
40
98
91
101
93
124
124
48
41
43
49
125
97
61
106
46
119
111
114
100
99
111
117
110
116
59
118
97
114
32
111
61
106
46
110
111
114
109
97
108
105
122
101
44
117
61
106
46
116
111
112
100
105
115
116
97
110
99
101
59
98
61
91
91
49
44
111
40
98
41
93
44
91
49
44
111
40
97
40
98
44
99
44
34
115
34
44
102
41
41
93
44
91
49
44
111
40
97
40
98
44
99
44
34
116
34
44
102
41
41
93
44
91
49
44
111
40
97
40
98
44
99
44
34
112
34
44
102
41
41
93
44
91
49
44
111
40
97
40
98
44
99
44
34
99
34
44
102
41
41
93
44
91
49
44
111
40
117
40
98
44
99
44
34
115
34
44
102
41
44
45
49
41
93
44
91
49
44
111
40
117
40
98
44
99
44
34
116
34
44
10
102
41
44
45
49
41
93
44
91
49
44
111
40
117
40
98
44
99
44
34
112
34
44
102
41
44
45
49
41
93
44
91
49
44
111
40
117
40
98
44
99
44
34
99
34
44
102
41
44
45
49
41
93
93
59
118
97
114
32
112
61
123
125
59
100
61
48
59
102
111
114
40
103
61
98
46
108
101
110
103
116
104
59
100
60
103
59
100
43
43
41
123
97
61
98
91
100
93
59
102
61
97
91
48
93
59
97
61
97
91
49
93
59
102
111
114
40
101
32
105
110
32
97
41
123
112
91
101
93
124
124
40
112
91
101
93
61
48
41
59
112
91
101
93
43
61
102
42
97
91
101
93
125
125
118
97
114
32
118
61
91
93
59
98
61
48
59
118
97
114
32
113
61
123
125
44
116
44
120
59
102
111
114
40
101
32
105
110
32
112
41
123
116
61
112
91
101
93
59
120
61
113
91
116
93
124
124
40
113
91
116
93
61
91
93
41
59
120
91
120
46
108
101
110
103
116
104
93
61
101
59
118
91
98
43
43
93
61
116
125
118
46
115
111
114
116
40
106
46
97
115
99
41
59
118
46
114
101
118
101
114
115
101
40
41
59
118
97
114
32
110
61
106
46
104
105
103
104
108
105
103
104
116
44
119
61
110
117
108
108
59
107
46
115
108
105
100
101
85
112
40
34
115
108
111
119
34
44
102
117
110
99
116
105
111
110
40
41
123
107
46
101
109
112
116
121
40
41
59
100
61
48
59
102
111
114
40
103
61
118
46
108
101
110
103
116
104
59
100
60
103
59
100
43
43
41
123
116
61
118
91
100
93
59
105
102
40
116
33
61
61
119
41
123
119
61
116
59
120
61
113
91
116
93
59
102
111
114
40
118
97
114
32
115
61
48
44
121
61
120
46
108
101
110
103
116
104
59
115
60
121
59
115
43
43
41
123
101
61
120
91
115
93
59
118
97
114
32
122
61
104
40
34
73
68
45
34
43
101
41
44
65
61
104
40
34
85
82
76
45
34
43
122
41
44
66
61
65
46
116
101
120
116
59
107
46
97
112
112
101
110
100
40
109
40
34
60
100
116
62
60
97
62
60
47
97
62
60
47
100
116
62
34
41
46
102
105
110
100
40
34
97
34
41
46
97
116
116
114
40
34
104
114
101
102
34
44
10
122
41
46
97
116
116
114
40
34
116
105
116
108
101
34
44
65
46
116
105
116
108
101
41
46
104
116
109
108
40
110
40
65
46
116
105
116
108
101
44
99
44
102
97
108
115
101
41
41
46
101
110
100
40
41
44
109
40
34
60
100
100
62
60
112
62
60
47
112
62
60
47
100
100
62
34
41
46
102
105
110
100
40
34
112
34
41
46
104
116
109
108
40
110
40
66
44
99
41
41
46
101
110
100
40
41
46
97
112
112
101
110
100
40
34
60
112
62
60
115
116
114
111
110
103
62
83
99
111
114
101
58
32
34
43
40
112
91
101
93
43
34
34
41
46
115
117
98
115
116
114
40
48
44
52
41
43
34
60
47
115
116
114
111
110
103
62
60
47
112
62
34
41
41
125
125
125
107
46
115
108
105
100
101
68
111
119
110
40
34
115
108
111
119
34
41
125
41
125
125
41
59
109
40
102
117
110
99
116
105
111
110
40
41
123
105
46
102
111
99
117
115
40
41
125
41
125
41
40
119
105
110
100
111
119
44
100
111
99
117
109
101
110
116
44
119
105
110
100
111
119
91
34
49
48
107
115
101
34
93
44
106
81
117
101
114
121
41
59
10
255
